# xmcd
#
# Track frame offsets:
#	150
#	8870
#	14508
#	29908
#	39519
#	50473
#	63536
#	72184
#	82741
#	97459
#	109036
#	121970
#	138664
#	153106
#	170376
#	185583
#	198680
#	212044
#	225516
#	239730
#	254724
#	270401
#	285879
#	299269
#	313643
#	327200
#	345014
#
# Disc length: 4783 seconds
#
# Revision: 1
# Processed by: cddbd v1.5.2PL0 Copyright (c) Steve Scherf et al.
# Submitted via: audiograbber 1.83.01
#
DISCID=8d12ad1b
DTITLE=Zlatno Slavejce - Hitovite na Zlatno Slavejce
DYEAR=2011
DGENRE=Detski
TTITLE0=Pesna za Skopje - 1974
TTITLE1=Peglaj peglaj peglicke - 1971
TTITLE2=Ej, gulabi gulabi beli - 1972
TTITLE3=Ringispil - 1975
TTITLE4=Majsko Avionche - 1977
TTITLE5=Bombonce - 1988
TTITLE6=Kavalce - 1991
TTITLE7=Letaj, letaj, Buba Maro - 1991
TTITLE8=Bozikna pesna - 1993
TTITLE9=Eh, toj Tose - 1994
TTITLE10=Rodendenska pesna - 1995
TTITLE11=Fudbaler i kosarkar - 1996
TTITLE12=Lisa veterinar - 1997
TTITLE13=Ne kori me - 1999
TTITLE14=Cevlicki - 2001
TTITLE15=Ajde da sadime mir - 2001
TTITLE16=Leonora, Leonorce - 2002
TTITLE17=Kauboj - 2003
TTITLE18=Dajte race - 2004
TTITLE19=Slonce - 2004
TTITLE20=Moze li - 2005
TTITLE21=Novogodisna - 2005
TTITLE22=Vinozito - 2006
TTITLE23=Volsebno oro - 2007
TTITLE24=Casovnik - 2008
TTITLE25=Nasmej se - 2008
TTITLE26=Kriva kula - 2009
EXTD=
EXTT0=
EXTT1=
EXTT2=
EXTT3=
EXTT4=
EXTT5=
EXTT6=
EXTT7=
EXTT8=
EXTT9=
EXTT10=
EXTT11=
EXTT12=
EXTT13=
EXTT14=
EXTT15=
EXTT16=
EXTT17=
EXTT18=
EXTT19=
EXTT20=
EXTT21=
EXTT22=
EXTT23=
EXTT24=
EXTT25=
EXTT26=
PLAYORDER=
